<?xml version="1.0" standalone="no"?>
<!DOCTYPE svg PUBLIC "-//W3C//DTD SVG 20010904//EN"
 "http://www.w3.org/TR/2001/REC-SVG-20010904/DTD/svg10.dtd">
<svg version="1.0" xmlns="http://www.w3.org/2000/svg"
 width="512.000000pt" height="512.000000pt" viewBox="0 0 512.000000 512.000000"
 preserveAspectRatio="xMidYMid meet">

<g transform="translate(0.000000,512.000000) scale(0.100000,-0.100000)"
fill="#000000" stroke="none">
<path d="M1319 4625 c-606 -84 -1107 -523 -1264 -1106 -55 -205 -55 -209 -55
-1644 0 -949 3 -1331 11 -1348 6 -14 22 -30 36 -36 35 -16 4992 -16 5027 0 13
7 30 24 36 38 8 19 10 418 7 1406 -3 1360 -3 1381 -24 1476 -70 318 -199 557
-422 780 -227 226 -455 350 -781 422 -93 20 -117 21 -1285 23 -947 2 -1210 0
-1286 -11z m128 -158 c-165 -106 -232 -153 -282 -197 -94 -82 -104 -113 -56
-161 44 -43 69 -38 153 32 254 213 523 321 833 335 l110 5 -60 -33 c-188 -104
-401 -298 -514 -468 -147 -221 -238 -469 -260 -705 l-6 -70 -281 -3 -280 -2 8
77 c10 96 32 193 69 300 35 100 36 127 4 158 -45 46 -104 26 -133 -44 -50
-116 -102 -328 -102 -415 0 -17 -3 -41 -6 -53 l-6 -23 -234 0 -234 0 0 40 c0
57 34 224 64 313 14 42 48 121 75 175 212 421 635 706 1106 745 22 2 42 4 45
5 3 0 -3 -5 -13 -11z m1399 -27 c-211 -123 -380 -281 -508 -475 -147 -221
-209 -399 -254 -732 l-5 -33 -274 0 -275 0 0 40 c0 58 34 224 65 315 32 98
101 235 163 329 60 90 214 251 306 320 227 170 510 269 786 275 l65 1 -69 -40z
m1032 9 c205 -42 444 -156 585 -281 l38 -33 -411 -410 -410 -410 0 581 0 580
71 -7 c39 -5 96 -13 127 -20z m-358 -556 l0 -578 -410 410 -411 410 38 33
c188 161 520 297 736 301 l47 1 0 -577z m-525 -283 l410 -410 -581 0 -580 0 7
71 c27 253 127 495 288 697 23 28 43 52 44 52 1 0 187 -184 412 -410z m1736
256 c72 -107 120 -207 160 -329 32 -97 59 -235 59 -298 l0 -39 -577 0 -578 0
410 410 410 411 29 -33 c15 -18 55 -73 87 -122z m-4091 -1346 l0 -520 -240 0
-240 0 0 520 0 520 240 0 240 0 0 -520z m720 0 l0 -520 -280 0 -280 0 0 520 0
520 280 0 280 0 0 -520z m720 0 l0 -520 -280 0 -280 0 0 520 0 520 280 0 280
0 0 -520z m2880 -680 l0 -1200 -159 0 -159 0 -4 122 c-4 108 -8 129 -31 174
-38 75 -69 107 -139 145 l-63 34 -362 3 -363 3 0 78 0 79 183 4 c159 4 191 8
253 29 99 34 178 83 254 159 110 111 173 246 186 399 7 77 6 80 -20 106 l-27
27 -237 -4 c-226 -4 -240 -5 -310 -30 -87 -32 -164 -77 -232 -136 l-50 -44 0
185 0 185 183 4 c159 4 191 8 253 29 99 34 178 83 254 159 110 111 173 246
186 399 7 77 6 80 -20 106 l-27 27 -237 -4 c-214 -4 -243 -7 -302 -27 -134
-46 -242 -123 -318 -226 -24 -33 -47 -60 -52 -60 -4 0 -29 29 -56 65 -90 120
-249 216 -395 239 -35 6 -153 11 -262 11 l-198 0 -26 -26 c-25 -25 -26 -29
-20 -105 12 -150 76 -287 187 -399 76 -75 148 -121 252 -158 66 -23 90 -26
256 -30 l182 -4 0 -185 0 -185 -50 44 c-68 59 -145 104 -232 136 -70 25 -84
26 -310 30 l-237 4 -27 -27 c-26 -26 -27 -30 -21 -106 12 -150 76 -287 187
-399 76 -75 148 -121 252 -158 66 -23 90 -26 256 -30 l182 -4 0 -79 0 -78
-362 -3 -363 -3 -63 -34 c-70 -38 -101 -70 -139 -145 -23 -45 -27 -66 -31
-173 l-4 -123 -159 0 -159 0 0 1200 0 1200 1360 0 1360 0 0 -1200z m-1834 869
c143 -26 281 -131 341 -259 17 -36 34 -80 38 -99 l7 -33 -163 4 c-181 6 -238
19 -331 79 -92 59 -182 186 -203 287 l-7 32 129 0 c71 0 156 -5 189 -11z
m1264 3 c0 -20 -41 -127 -62 -161 -57 -92 -147 -164 -254 -202 -48 -18 -89
-23 -223 -27 l-163 -4 7 33 c12 59 63 155 110 207 71 78 161 129 270 152 54
11 315 12 315 2z m-3750 -1472 l0 -600 -240 0 -240 0 0 600 0 600 240 0 240 0
0 -600z m720 385 c0 -216 0 -216 25 -240 32 -33 78 -33 110 0 25 24 25 24 25
240 l0 215 280 0 280 0 0 -600 0 -600 -280 0 -280 0 0 215 c0 216 0 216 -25
240 -32 33 -78 33 -110 0 -25 -24 -25 -24 -25 -240 l0 -215 -280 0 -280 0 0
600 0 600 280 0 280 0 0 -215z m1772 201 c172 -37 302 -151 357 -314 12 -34
21 -64 21 -67 0 -11 -259 -4 -321 9 -172 37 -304 152 -358 314 -12 34 -21 64
-21 67 0 11 259 4 322 -9z m1258 9 c0 -3 -9 -33 -21 -67 -49 -145 -152 -248
-301 -299 -51 -18 -94 -23 -221 -27 l-158 -5 7 29 c45 185 183 319 368 359 58
13 326 21 326 10z m8 -900 c59 -35 76 -76 80 -192 l4 -103 -881 0 -881 0 0 83
c0 45 5 98 10 118 12 44 62 96 104 108 18 6 348 9 781 8 731 -2 751 -3 783
-22z"/>
<path d="M925 3975 c-34 -33 -33 -78 1 -110 35 -32 78 -32 109 0 50 49 15 135
-55 135 -19 0 -40 -9 -55 -25z"/>
</g>
</svg>
